<?xml version="1.0" standalone="no"?>
<!DOCTYPE svg PUBLIC "-//W3C//DTD SVG 20010904//EN"
 "http://www.w3.org/TR/2001/REC-SVG-20010904/DTD/svg10.dtd">
<svg version="1.0" xmlns="http://www.w3.org/2000/svg"
 width="360.000000pt" height="360.000000pt" viewBox="0 0 360.000000 360.000000"
 preserveAspectRatio="xMidYMid meet">
<metadata>
Created by potrace 1.16, written by Peter Selinger 2001-2019
</metadata>
<g transform="translate(0.000000,360.000000) scale(0.100000,-0.100000)"
fill="#000000" stroke="none">
<path d="M1730 3465 c-133 -38 -298 -136 -437 -262 -183 -165 -296 -358 -336
-573 -42 -226 -50 -392 -22 -451 25 -53 68 -125 89 -148 43 -47 72 -13 80 94
4 44 9 94 13 110 4 17 7 37 7 45 1 8 20 25 44 38 49 27 72 65 78 130 3 25 9
50 13 56 5 6 10 16 11 21 5 39 76 90 155 111 58 16 214 18 298 4 32 -5 143
-12 245 -15 221 -7 305 -23 365 -69 55 -42 70 -86 70 -207 0 -97 -14 -150 -46
-177 -21 -18 -127 -42 -183 -42 -69 0 -194 -33 -241 -64 -69 -46 -73 -62 -74
-268 -2 -302 13 -393 62 -368 10 6 20 19 24 29 4 13 17 21 37 23 49 5 71 54
65 148 -5 78 -16 111 -55 170 -16 24 -22 44 -19 68 5 35 32 72 52 72 7 0 18 7
25 15 15 18 107 45 157 45 43 0 103 -15 150 -37 35 -16 69 -62 76 -103 3 -14
8 -41 12 -61 15 -82 -39 -249 -119 -367 -63 -94 -82 -149 -91 -272 -10 -136
-57 -219 -164 -289 -88 -58 -209 -120 -277 -142 -39 -13 -64 -26 -64 -35 0 -8
5 -15 10 -15 6 -1 13 -2 18 -3 4 -2 42 -6 84 -10 95 -10 228 7 292 38 46 22
127 87 175 140 14 15 47 50 72 76 26 27 58 72 72 102 23 46 62 172 72 233 2
11 9 49 15 85 7 36 17 71 23 79 6 7 52 33 102 58 49 24 103 56 118 71 36 34
100 167 144 302 39 116 40 172 6 219 -28 38 -84 64 -114 52 -13 -5 -28 -9 -32
-9 -5 0 -15 -9 -23 -19 -14 -17 -14 -16 -4 5 6 12 8 22 4 22 -3 0 -2 6 4 13 6
6 27 80 48 162 34 134 38 164 38 275 1 160 -11 203 -144 520 -71 171 -127 219
-321 281 -264 84 -549 124 -659 94z"/>
<path d="M1296 2117 c-34 -5 -65 -15 -71 -24 -12 -15 -9 -59 4 -67 3 -3 60 -6
126 -7 66 -2 136 -7 155 -11 54 -13 65 -16 68 -18 1 -2 7 -4 12 -5 6 -1 12 -4
15 -5 3 -1 8 -3 13 -5 4 -1 20 -5 35 -10 33 -9 48 2 41 30 -10 38 -129 97
-229 114 -102 17 -105 17 -169 8z"/>
<path d="M1368 1977 c-35 -16 -68 -47 -68 -64 0 -17 15 -17 32 0 12 13 52 37
60 37 2 0 3 -12 2 -27 -3 -56 74 -92 120 -55 14 10 22 22 19 26 -3 3 -1 6 5 6
6 0 9 7 6 15 -4 10 0 15 12 15 9 0 14 -3 11 -7 -4 -3 5 -14 20 -24 26 -17 43
-17 43 1 0 15 -51 70 -60 65 -5 -3 -14 1 -22 8 -17 18 -144 20 -180 4z"/>
<path d="M2112 1961 c-28 -10 -52 -16 -52 -13 0 3 -10 -7 -21 -22 -23 -29 -19
-47 6 -26 8 7 15 10 15 6 0 -4 12 2 27 11 15 10 24 13 20 6 -10 -15 13 -63 30
-63 7 0 13 -4 13 -8 0 -12 42 -13 71 -1 15 6 31 21 37 35 14 30 24 30 53 -1
27 -28 65 -35 55 -9 -3 9 -6 19 -6 24 0 17 -106 67 -144 69 -22 1 -42 4 -45 6
-4 2 -30 -5 -59 -14z"/>
<path d="M2000 1423 c-14 -10 -44 -18 -68 -19 -32 -1 -57 -11 -90 -35 -51 -37
-76 -39 -124 -9 -53 32 -109 22 -70 -13 9 -9 51 -31 92 -51 121 -57 205 -51
271 17 49 52 58 82 33 108 -19 18 -21 18 -44 2z"/>
<path d="M1905 1140 c-33 -3 -69 -11 -80 -17 -15 -8 -27 -8 -45 3 -32 17 -77
17 -171 -1 -41 -7 -85 -12 -96 -9 -11 3 -24 1 -27 -4 -3 -6 2 -13 11 -15 21
-6 135 -21 144 -19 4 1 47 -3 96 -9 77 -8 107 -7 208 11 65 11 122 23 127 26
19 12 1 27 -34 29 -19 2 -44 5 -54 7 -10 3 -46 2 -79 -2z"/>
</g>
</svg>
